<?xml version="1.0" encoding="utf-8"?>
<!-- Generator: Adobe Illustrator 26.0.3, SVG Export Plug-In . SVG Version: 6.00 Build 0)  -->
<svg version="1.1" id="Capa_1" xmlns="http://www.w3.org/2000/svg" xmlns:xlink="http://www.w3.org/1999/xlink" x="0px" y="0px"
	 viewBox="0 0 100 100" style="enable-background:new 0 0 100 100;" xml:space="preserve">
<style type="text/css">
	.st0{fill:#00D4F3;}
	.st1{fill:#FFFFFF;}
</style>
<rect class="st0" width="100" height="100"/>
<path class="st1" d="M19,85.3c1.7-3.4,3.3-6.8,5.9-9.6c8.1-9,18-12.9,30.1-11.1c8.3,1.3,15,5.4,20.3,11.8c1.9,2.3,3.2,4.9,4.6,7.6
	c0.2,0.5,0.4,1,0.8,1.4c-3.2,3.2-6.9,5.5-11,7.3c-13.6,6.2-27.2,5.9-40.6-0.4C25.4,90.5,21.8,88.4,19,85.3z"/>
<path class="st1" d="M68.6,37.4c0.5,10.9-8.7,19.7-19,19.5c-9.8-0.2-18.5-7.6-18.6-18.8c-0.1-9.8,8-19,19.2-18.7
	C59.6,19.5,68.3,27,68.6,37.4z"/>
</svg>
