<svg xmlns="http://www.w3.org/2000/svg" viewBox="0 0 50 39.42"><defs><style>.cls-1{fill:#041e42;}</style></defs><g id="Capa_2" data-name="Capa 2"><g id="Capa_1-2" data-name="Capa 1"><path class="cls-1" d="M29.78,18.9a6,6,0,1,0-6-6A6,6,0,0,0,29.78,18.9Zm0-10a4,4,0,1,1-4,4A4,4,0,0,1,29.78,8.91Z"/><path class="cls-1" d="M43.26,0H6.74A6.74,6.74,0,0,0,0,6.74V32.68a6.74,6.74,0,0,0,6.74,6.74H43.26A6.74,6.74,0,0,0,50,32.68V6.74A6.74,6.74,0,0,0,43.26,0ZM6.74,2H43.26A4.78,4.78,0,0,1,48,6.74V28.15l-9.6-7.58L28.5,28.91,14.39,17.38,2,27.75v-21A4.78,4.78,0,0,1,6.74,2ZM43.26,37.45H6.74A4.78,4.78,0,0,1,2,32.68V30.32L14.41,19.94,28.52,31.47l10-8.36L48,30.67v2A4.78,4.78,0,0,1,43.26,37.45Z"/></g></g></svg>