<?xml version="1.0" encoding="utf-8"?>
<!-- Generator: Adobe Illustrator 26.0.3, SVG Export Plug-In . SVG Version: 6.00 Build 0)  -->
<svg version="1.1" id="Capa_1" xmlns="http://www.w3.org/2000/svg" xmlns:xlink="http://www.w3.org/1999/xlink" x="0px" y="0px"
	 viewBox="0 0 320 110" style="enable-background:new 0 0 320 110;" xml:space="preserve">
<style type="text/css">
	.st0{fill:#03D4F2;}
	.st1{fill:#FFFFFF;}
</style>
<path class="st0" d="M250.8,63.3c-2,0-4.1,0-6.1,0c-2.3,0-3.4,1-3.7,3.3c-0.9,6.2-1.7,12.3-2.5,18.5c-0.4,2.9-1.3,3.8-4.2,3.8
	c-3.1,0-6.1,0-9.2,0c-3.1,0-4.3-1.3-3.9-4.4c1-7.2,2-14.5,3-21.7c1.7-12.5,3.5-25,5.2-37.5c0.5-3.5,1.2-4.2,4.7-4.2c3,0,6,0,9,0
	c2.7,0,4,1.4,3.6,4.1c-0.8,5.8-1.6,11.6-2.5,17.4c-0.4,2.5,0.9,4.1,3.4,4.1c4.1,0,8.3,0,12.4,0c2.1,0,3.2-1,3.5-3.1
	c0.9-6.4,1.8-12.8,2.8-19.2c0.4-2.5,1.4-3.3,3.8-3.3c3.3,0,6.6,0,9.9,0c2.5,0,3.8,1.6,3.5,4.1c-2.8,20.2-5.7,40.4-8.5,60.6
	c-0.3,2.1-1.4,3.1-3.5,3.1c-3.4,0-6.7,0-10.1,0c-2.7,0-4-1.5-3.6-4.2c0.7-5.5,1.5-10.9,2.3-16.4c0.5-3.7-0.5-5-4.2-5
	C254.3,63.3,252.5,63.3,250.8,63.3z"/>
<path class="st0" d="M285.5,31c0.5-3.3,2.5-6,4.1-8.9c0.5-0.8,1.4-1.1,2.4-1.1c3.7,0,7.3,0,11,0c2,0,2.9,1,3.4,3.3
	c1.9,8.5,3.7,17.1,5.6,25.6c2.5,11.5,5,22.9,7.5,34.4c0.6,2.9-0.6,4.5-3.6,4.5c-3.6,0-7.2,0-10.8,0c-2.2,0-3.3-0.9-3.7-3.1
	c-0.5-2.5-0.9-5.1-1.5-7.6c-0.4-1.9-1.4-2.9-3.3-2.9c-4.3-0.1-8.6,0-12.9,0c-2.7,0-4.6,5-5.5,6.8C278.2,81.8,283.2,46.2,285.5,31z
	 M295.2,40.4c-0.2,0.1-0.4,0.2-0.5,0.4c-2,5.1-3.9,10.3-5.8,15.4c-0.4,1.2,0.1,2.2,0.9,3.1c1,0.9,4.1,1.2,5.5,0.5
	c1.5-0.8,1.9-2.1,1.7-3.8c-0.4-4.2-0.8-8.4-1.3-12.6C295.7,42.3,295.9,41.3,295.2,40.4z"/>
<path class="st1" d="M129.3,77.4c-5.5,0-10.9,0-16.4,0c-2.8,0-3.8-1.1-3.4-3.9c2.3-16.7,4.7-33.4,7-50.2c0.4-2.6,1.2-3.3,3.8-3.3
	c6.7,0,13.3,0,20,0c2.8,0,3.9,1.1,3.5,3.9c-0.3,2.4-0.7,4.7-1,7.1c-0.3,2-1.2,2.8-3.3,2.8c-2.3,0-4.7,0-7,0c-1.9,0-2.7,0.8-3,2.6
	c-0.9,5.1-0.4,5.8,4.8,5.8c4.6,0,9.1,0,13.7,0c2.7,0,3.7,1.1,3.4,3.8c-0.3,2-0.5,4-0.9,6c-0.4,2.4-1.1,3.1-3.6,3.1
	c-5.6,0-11.2,0-16.7,0c-2.8,0-3.4,0.6-3.9,3.4c-0.1,0.5-0.1,1-0.2,1.4c-0.3,2.6,0.6,3.7,3.3,3.7c5.6,0,11.3,0,16.9,0
	c3.7,0,4.4,0.8,4,4.5c-0.2,1.9-0.5,3.8-0.8,5.7c-0.4,2.9-1.1,3.5-4,3.5C140.1,77.4,134.7,77.4,129.3,77.4z"/>
<path class="st0" d="M224.8,40.6c-1.2,0-2-0.6-2.8-1.4c-4.3-4.6-13.3-4.2-17.2,0.8c-1.1,1.4-1.4,3-1.7,4.7
	c-0.9,6.7-1.8,13.4-2.8,20.1c-0.8,5.8,1.7,8.9,7.6,9c3.6,0.1,6.9-1,9.4-3.7c0.9-1,1.9-1.8,3.6-1.3c-0.5,3.5-0.9,6.9-1.4,10.3
	c-0.3,2.3-0.7,4.6-1,6.9c-0.1,0.8-0.3,1.4-1.1,1.7c-9.3,3.9-22.7,2.4-29.6-4.4c-1.7-1.7-2.6-3.4-2.2-6c1.9-12.5,3.5-25,5.2-37.5
	c0.4-3.2,1.4-3.9,4.6-3.9c1.1,0,2.3,0,3.4,0c2-0.1,3.1-0.9,3.4-3c0.5-3.1,0.9-6.2,1.3-9.2c0.1-0.9,0.4-1.4,1.3-1.7
	c6.6-2,13.2-2.6,20-0.4c1.7,0.6,2.5,1.3,2.1,3.3c-0.9,5-1.5,10.1-2.2,15.1C225,40.1,224.9,40.3,224.8,40.6z"/>
<path class="st1" d="M174.6,20c7.5,0,15,0,22.5,0c3.3,0,4.2,1.1,3.7,4.3c-0.3,2.1-0.6,4.1-0.9,6.2c-0.3,2.1-1.2,2.8-3.2,2.8
	c-1.3,0-2.5,0-3.8,0c-2.8,0-3.6,0.6-4,3.5c-1.4,10-2.7,19.9-4.1,29.9c-0.4,2.7-0.7,5.3-1.1,8c-0.3,1.9-1.2,2.7-3.1,2.8
	c-2.8,0-5.6,0-8.5,0c-2.3,0-3.4-1.2-3-3.6c1.2-8.9,2.4-17.8,3.7-26.7c0.4-3.3,0.9-6.5,1.3-9.8c0.4-3-0.5-4-3.6-4
	c-5.9,0-11.9,0-17.8,0c-1,0-1.9,0-2.9,0c-1.9-0.1-3-1.1-2.8-2.9c0.3-2.7,0.7-5.5,1.2-8.2c0.3-1.8,1.8-2.2,3.4-2.2
	C159.2,20,166.9,20,174.6,20z"/>
<path class="st1" d="M9.8,77.4c-1.3,0-2.5,0-3.8,0c-2.6,0-3.6-1.1-3.3-3.7c1.5-10.9,3-21.8,4.6-32.7c0.8-5.8,1.6-11.5,2.4-17.3
	c0.4-3.1,1.1-3.7,4.2-3.7c2.3,0,4.7,0,7,0c2.7,0,3.8,1.2,3.4,3.8c-2.4,16.8-4.7,33.7-7.1,50.5c-0.3,2.3-1.1,3-3.4,3
	C12.4,77.4,11.1,77.4,9.8,77.4z"/>
<path class="st1" d="M40.4,60.9c-3.1,0-6.2,0-9.3,0c-2.5,0-3.6-1.3-3.2-3.8c0.3-2.3,0.6-4.6,1-6.9c0.3-2.4,1.2-3.1,3.6-3.1
	c6.2,0,12.3,0,18.5,0c2.5,0,3.6,1.3,3.2,3.8c-0.3,2.4-0.6,4.7-1,7.1c-0.3,2.1-1.2,2.9-3.4,2.9C46.6,60.9,43.5,60.9,40.4,60.9z"/>
<path class="st1" d="M150.1,87.2c-0.3,1.5-0.3,3.4-2.9,2.4c0.4-2.7,0.8-5.4,1.2-8.1c3.5-1.4,2.7,2,3.8,3.3c1.8-1,1.7-4.6,5-3.3
	c-0.4,2.7-0.8,5.5-1.2,8.2c-0.9,0.3-1.6,0.3-2.2,0c-0.4-0.9,0.4-1.7-0.1-2.6C151.9,89.2,151.6,89.2,150.1,87.2z"/>
<path class="st1" d="M91.1,85.2c0.8-1.3,0.5-2.7,1.1-3.8c0.7-0.2,1.4-0.1,2.3-0.1c-0.4,2.7-0.8,5.3-1.2,7.9
	c-0.1,0.6-0.6,0.7-1.1,0.7c-0.7,0-1.4,0.2-1.8-0.7c-0.5-0.9-0.8-2-1.6-2.9c-0.7,1-0.3,2.3-0.9,3.4c-0.6,0.4-1.3,0.2-2.3,0.1
	c0.4-2.8,0.9-5.6,1.3-8.4c1.2-0.1,2.3-0.5,2.9,1C90.1,83.3,90.6,84.1,91.1,85.2z"/>
<path class="st1" d="M139.4,81.5c2.5-0.4,2.5-0.4,3.8,3.1c0.7-0.5,0.7-0.5,1.4-3.1c0.7-0.2,1.4-0.2,2.3,0c-0.4,2.6-0.8,5.1-1.2,7.7
	c-0.1,0.6-0.5,0.7-1,0.7c-0.7,0-1.4,0.2-1.9-0.7c-0.5-1-0.8-2-1.6-2.9c-0.7,1.1-0.3,2.4-0.9,3.4c-0.7,0.2-1.4,0.3-2.2-0.1
	c0.1-0.8,0.2-1.5,0.3-2.3C138.8,85.4,139.1,83.4,139.4,81.5z"/>
<path class="st1" d="M170.9,85.2c0.8-1.4,0.4-2.7,1-3.9c0.7-0.1,1.4-0.2,2.3,0.1c-0.4,2.7-0.9,5.5-1.3,8.1c-3.1,1.4-3-1.8-4.4-2.9
	c-0.9,1.1,0.1,4.3-3.2,2.9c0.4-2.5,0.8-5.1,1.2-7.7c0.1-0.6,0.6-0.7,1.1-0.7c0.7,0,1.4-0.1,1.8,0.8
	C169.8,83.1,170.4,84.1,170.9,85.2z"/>
<path class="st1" d="M102.5,89.9c0.5-3,0.9-5.7,1.3-8.5c2.2,0,4.3,0,6.5,0c0.3,1.5-0.2,2.1-1.7,2c-0.9,0-2-0.4-2.8,0.6
	c1.2,0.9,2.4,0.2,3.6,0.7c0.3,1.4-0.2,2-1.7,1.9c-0.8,0-1.8-0.5-2.3,0.8c1.2,0.8,2.6,0,3.8,0.6c0.2,1.4-0.1,2.1-1.7,2
	C105.9,89.8,104.3,89.9,102.5,89.9z"/>
<path class="st1" d="M59.4,89.6c-2.6,1.2-3.5-0.9-4.9-2.6c-0.3,1.1-0.5,1.9-0.7,2.7c-0.7,0.2-1.4,0.3-2.3,0c0.4-2.6,0.8-5.1,1.2-7.7
	c0-0.3,0.2-0.6,0.5-0.6c1.8,0,3.6-0.4,5.3,0.4c1.4,0.7,1.6,2.9,0.5,4.2c-0.4,0.4-0.8,0.7-1.2,1c0,0.6,0.5,1,0.8,1.4
	C58.7,88.8,59,89.2,59.4,89.6z M54.7,85.2c1.1,0.1,2.1,0.3,2.4-1c0.1-0.6-0.5-0.8-1-0.9C54.6,83.2,54.6,84,54.7,85.2z"/>
<path class="st1" d="M116.6,86.9c0.3,1.1,1.3,1.7,1.6,2.6c-2.6,1.4-3.4-0.9-4.8-2.5c-0.3,1.1-0.5,1.9-0.7,2.7
	c-0.7,0.3-1.4,0.2-2.4,0c0.4-2.6,0.8-5.2,1.2-7.8c0-0.3,0.3-0.6,0.6-0.6c1.7,0,3.4-0.3,5,0.3c1.6,0.6,2,3,0.7,4.4
	C117.5,86.3,117,86.6,116.6,86.9z M113.7,85.3c1.1-0.1,2.2,0.2,2.3-1.1c0.1-0.7-0.5-0.8-1.1-0.8C113.6,83.2,113.6,84.1,113.7,85.3z"
	/>
<path class="st1" d="M77.7,89.9c0.5-3.1,0.9-5.8,1.4-8.5c2.2,0,4.3,0,6.4,0c0.3,1.5-0.2,2.1-1.7,2c-0.9,0-2-0.6-2.7,0.8
	c1.1,0.8,2.4,0.1,3.5,0.5c0.4,1.5-0.3,2-1.7,1.9c-0.7,0-1.7-0.4-2.3,0.7c1.2,0.9,2.6,0.1,3.9,0.6c0.2,1.3,0.1,2.1-1.6,2
	C81.2,89.8,79.5,89.9,77.7,89.9z"/>
<path class="st1" d="M165.2,81.3c0.3,1.7-0.3,2.1-1.7,2.1c-0.9,0-2-0.6-2.6,0.7c1.1,0.8,2.4,0,3.5,0.6c0.3,1.3-0.2,2-1.7,1.8
	c-0.8-0.1-1.6-0.3-2.4,0.6c1.2,1.1,2.6,0.3,3.8,0.7c0.4,1.4,0,2.2-1.7,2c-1.6-0.1-3.2,0-5,0c0.4-2.8,0.8-5.3,1.2-7.8
	c0.1-0.7,0.5-0.8,1.1-0.8C161.6,81.3,163.3,81.3,165.2,81.3z"/>
<path class="st1" d="M47.5,81.1c2.8,0,3.8,1.2,3.4,3.9c-0.6,3.9-2.5,5.5-5.8,4.8c-1.8-0.4-2.6-1.5-2.4-3.3
	C43.2,82.5,44.4,81.1,47.5,81.1z M48.5,84.8c0.1-0.7,0.1-1.4-0.8-1.6c-0.9-0.2-1.7,0-2.1,0.9c-0.2,0.6-0.3,1.3-0.4,1.9
	c-0.1,0.8-0.2,1.6,0.9,1.7c0.9,0.1,1.7-0.1,1.9-1.1C48.3,86.1,48.4,85.4,48.5,84.8z"/>
<path class="st1" d="M133.6,89.8c-1.3,0-2.5,0.7-2.9-1.2c-0.2-0.7-2.3-0.7-2.6,0c-0.6,1.5-1.7,1.4-3.3,1.1c1.5-2.8,2.9-5.4,4.4-8
	c0.5-0.9,2.4-0.6,2.6,0.3C132.4,84.5,133,87.1,133.6,89.8z"/>
<path class="st1" d="M26.5,88.5c1-2.7,3.3,0.4,4.5-1.2c-0.2-1-1.1-0.8-1.7-1c-1.1-0.4-2.1-1-2-2.4c0-1.4,0.8-2.2,2.1-2.6
	c1.7-0.4,3.3-0.6,4.6,0.9c-0.8,2.3-3.1-0.1-4.1,1.3c0.4,1,1.3,0.8,2,1.1c0.9,0.3,1.7,0.8,1.8,1.8c0.2,1-0.2,1.9-0.9,2.6
	C31,90.5,28.3,90.3,26.5,88.5z"/>
<path class="st1" d="M19,87.5c-0.2,1.7-0.5,3.2-2.8,2.1c0.4-2.4,0.7-4.9,1.1-7.4c0.1-0.4,0.1-0.9,0.7-0.9c1.6,0,3.3-0.3,4.8,0.3
	c1.1,0.4,1.6,1.4,1.5,2.6c-0.1,1.5-0.9,2.5-2.3,2.9C21.1,87.3,20.1,87.3,19,87.5z M19.3,85.3c1.2,0.2,2.2,0.3,2.4-1.1
	c0.1-0.8-0.6-0.9-1.2-0.9C19.1,83.3,19.5,84.3,19.3,85.3z"/>
<path class="st1" d="M2.8,89.7C2,90,1.4,89.9,0.4,89.8c0.4-2.8,0.8-5.5,1.3-8.3c1.6-0.3,3.3-0.3,4.8-0.1c1.1,0.1,1.8,0.9,2,2
	C8.7,84.9,8.2,86,7,86.8c-0.3,0.2-0.8,0.4-1.2,0.4C3.9,87.1,2.6,87.6,2.8,89.7z M3.6,85.3c1,0.1,2,0.4,2.4-0.9
	c0.2-0.7-0.3-1.1-1-1.1C3.5,83.2,3.7,84.3,3.6,85.3z"/>
<path class="st1" d="M36.4,89.7c-0.6,0.2-1.3,0.2-2.3,0c0.4-2.6,0.8-5.2,1.2-7.9c0-0.2,0.2-0.4,0.4-0.5c0.7-0.5,5.1,0,5.7,0.6
	c0.9,0.8,1,1.9,0.6,3c-0.4,1.3-1.4,2-2.7,2.3C37.2,87.7,37.2,87.7,36.4,89.7z M37.4,85.3c1.2,0.2,2.1,0.3,2.4-1c0.1-0.7-0.4-0.9-1-1
	C37.3,83.1,37.5,84.2,37.4,85.3z"/>
<path class="st1" d="M75.1,82.5c-0.8,0.6-1.2,1.2-2.2,0.9c-0.7-0.3-1.5-0.5-2.2,0.2c0.3,1,1.2,0.9,1.9,1.1c1,0.3,1.9,0.8,2,2
	c0.1,1.2-0.4,2.1-1.4,2.7c-1.8,1.1-4.1,0.8-5.8-0.8c0.6-1,1.3-1.5,2.6-0.8c0.6,0.3,1.4,0.4,2-0.4c-0.2-0.9-1.1-0.7-1.7-0.9
	c-1.2-0.4-2.2-1.1-2.1-2.5c0.1-1.4,0.9-2.2,2.2-2.5C72.1,81,73.7,80.9,75.1,82.5z"/>
<path class="st1" d="M13,87.5c0.8,0.1,1.4,0.2,1.9,0.2c0.4,0.7,0,1.3,0,2.1c-1.8,0-3.6,0-5.3,0c-0.4,0-0.8,0-1-0.5
	c-0.2-0.5,0-0.9,0.4-1.2c1.2-1,2.3-2.1,3.5-3.1c0.4-0.4,1.1-0.8,0.7-1.5c-0.4-0.7-1.1-0.4-1.6,0c-0.9,0.8-1.4-0.2-2.1-0.4
	c1.4-2.1,4-2.7,5.5-1.4C16.4,82.9,16.1,84.1,13,87.5z"/>
<path class="st1" d="M182.5,81.2c0.2,1.3,0.1,2.3-1.4,2.1c-1-0.1-1.3,0.4-1.4,1.3c-0.1,1.1-0.3,2.2-0.5,3.4c-0.3,2-0.3,2-2.6,1.8
	c-0.2-2.1,0.7-4.2,0.6-6.3c-0.8-0.1-1.5-0.2-2.2-0.2c-0.2-1.4,0.1-2.1,1.6-2C178.6,81.3,180.5,81.2,182.5,81.2z"/>
<path class="st1" d="M62.6,83.5c-0.8-0.1-1.5-0.2-2.2-0.3c-0.3-1.4,0.2-2.1,1.7-2c1.9,0.1,3.8,0,5.7,0c0.5,0.7,0.1,1.2,0.1,1.7
	c-0.5,0.5-1,0.4-1.4,0.3c-0.9-0.1-1.3,0.4-1.4,1.2c-0.1,1.1-0.4,2.2-0.5,3.4c-0.1,1.7-0.7,2.4-2.7,1.8
	C62.1,87.7,62.3,85.6,62.6,83.5z"/>
<path class="st1" d="M102.7,81.2c0.1,1.3,0.1,2.2-1.4,2.1c-1-0.1-1.3,0.4-1.5,1.3c-0.2,1.7-0.5,3.4-0.8,5c-0.8,0.4-1.5,0.2-2.5,0.2
	c0.3-2.2,0.6-4.2,0.8-6.2c-0.7-0.7-1.5-0.2-2.2-0.6c-0.3-1.2,0-2,1.5-1.9C98.8,81.3,100.7,81.2,102.7,81.2z"/>
<path class="st1" d="M127,81.2c-0.1,0.8-0.2,1.3-0.3,2.1c-2.8-0.7-2.8,1.2-3,3c-0.1,0.6-0.1,1.2-0.2,1.8c-0.3,2-0.4,2-2.7,1.6
	c0.3-2,0.6-4.1,0.8-6c-0.8-0.6-1.5-0.2-2.2-0.5c-0.4-1.4,0.1-2,1.6-1.9C123,81.3,124.9,81.2,127,81.2z"/>
<path class="st1" d="M134.2,89.8c0.5-3,0.9-5.6,1.3-8.2c0.8-0.4,1.5-0.3,2.4,0c-0.4,2.5-0.7,5.1-1.2,7.6
	C136.5,90.6,135.2,89.7,134.2,89.8z"/>
<path class="st1" d="M91.6,34.1c0.3,0.3,0.6,0.7,0.7,1.1C92.1,34.7,91.9,34.4,91.6,34.1z"/>
<path class="st1" d="M102.1,44.3c3.6-3.7,4.6-8.2,3.6-13.1c-1.2-6.1-6.2-10.2-13.1-10.8c-7.6-0.7-15.2-0.2-22.8-0.3
	c-2.6,0-3.4,0.7-3.7,3.3c-2.4,16.8-4.7,33.5-7.1,50.3c-0.4,2.5,0.7,3.7,3.2,3.8c3.7,0,7.4,0,11.1,0c0,0,0,0,0-0.1
	c3.7,0,7.4,0.1,11.1,0c10.3-0.5,17.1-5.5,19.8-14.7c1.4-4.8,1-9.2-2.4-13.1C100,47.2,100,46.5,102.1,44.3z M85.1,64.5
	c-1.4,0.2-2.9,0.2-4.3,0.3c-5.6-0.1-5.9-0.4-5.1-5.9c0.1-0.8,0.2-1.5,0.3-2.3c0.5-3.1,1-3.5,4-3.5c1.4,0,2.9,0,4.3,0
	c3.9,0,5.9,1.5,6.2,4.5C90.9,60.7,88.4,63.9,85.1,64.5z M87.1,42.5c-1,0.1-2,0-3,0c-5.7,0-6.1-0.4-5.2-6c0.1-0.6,0.1-1.2,0.3-1.8
	c0.3-1.6,1.2-2.5,2.9-2.5c3.6,0,6.9-0.1,8.6,1.1c0.4,0.2,0.8,0.5,1.1,0.8c0.3,0.3,0.5,0.6,0.7,1.1C93.4,38.4,90.7,42.1,87.1,42.5z"
	/>
</svg>
